<svg xmlns="http://www.w3.org/2000/svg" version="1.1" xmlns:xlink="http://www.w3.org/1999/xlink" xmlns:svgjs="http://svgjs.dev/svgjs" width="1000" height="280" viewBox="0 0 1000 280"><g transform="matrix(1,0,0,1,-0.6060606060606233,-0.22444566317895465)"><svg viewBox="0 0 396 111" data-background-color="#1b1b1b" preserveAspectRatio="xMidYMid meet" height="280" width="1000" xmlns="http://www.w3.org/2000/svg" xmlns:xlink="http://www.w3.org/1999/xlink"><g id="tight-bounds" transform="matrix(1,0,0,1,0.2400000000000091,0.08897667361736694)"><svg viewBox="0 0 395.52 110.82204665276524" height="110.82204665276524" width="395.52"><g><svg viewBox="0 0 395.52 110.82204665276524" height="110.82204665276524" width="395.52"><g><svg viewBox="0 0 574.5143767527045 160.9750684242834" height="110.82204665276524" width="395.52"><g transform="matrix(1,0,0,1,178.99437675270445,22.24763970263251)"><svg viewBox="0 0 395.52 116.47978901901837" height="116.47978901901837" width="395.52"><g id="textblocktransform"><svg viewBox="0 0 395.52 116.47978901901837" height="116.47978901901837" width="395.52" id="textblock"><g><svg viewBox="0 0 395.52 76.32842105263158" height="76.32842105263158" width="395.52"><g transform="matrix(1,0,0,1,0,0)"><svg width="395.52" viewBox="3.0999999999999996 -38.05 199.48000000000002 38.5" height="76.32842105263158" data-palette-color="#ff6b2e"><g class="wordmark-text-0" data-fill-palette-color="primary" id="text-0"><path d="M6.2-31.85Q4.9-31.85 4-32.75 3.1-33.65 3.1-34.95L3.1-34.95Q3.1-36.25 4-37.15 4.9-38.05 6.2-38.05L6.2-38.05Q7.45-38.05 8.33-37.15 9.2-36.25 9.2-34.95L9.2-34.95Q9.2-33.65 8.33-32.75 7.45-31.85 6.2-31.85L6.2-31.85ZM3.85-27.4L8.4-27.4 8.4 0 3.85 0 3.85-27.4ZM29.5-27.9Q34.5-27.9 37.6-24.88 40.7-21.85 40.7-16.15L40.7-16.15 40.7 0 36.2 0 36.2-15.5Q36.2-19.6 34.15-21.78 32.1-23.95 28.55-23.95L28.55-23.95Q24.95-23.95 22.82-21.7 20.7-19.45 20.7-15.15L20.7-15.15 20.7 0 16.15 0 16.15-27.4 20.7-27.4 20.7-23.5Q22.05-25.6 24.37-26.75 26.7-27.9 29.5-27.9L29.5-27.9ZM57.84 0.45Q54.7 0.45 52.2-0.63 49.7-1.7 48.25-3.63 46.8-5.55 46.65-8.05L46.65-8.05 51.34-8.05Q51.55-6 53.27-4.7 55-3.4 57.8-3.4L57.8-3.4Q60.4-3.4 61.9-4.55 63.4-5.7 63.4-7.45L63.4-7.45Q63.4-9.25 61.8-10.13 60.2-11 56.84-11.85L56.84-11.85Q53.8-12.65 51.87-13.48 49.95-14.3 48.57-15.93 47.2-17.55 47.2-20.2L47.2-20.2Q47.2-22.3 48.45-24.05 49.7-25.8 52-26.83 54.3-27.85 57.25-27.85L57.25-27.85Q61.8-27.85 64.59-25.55 67.4-23.25 67.59-19.25L67.59-19.25 63.05-19.25Q62.9-21.4 61.32-22.7 59.75-24 57.09-24L57.09-24Q54.65-24 53.2-22.95 51.75-21.9 51.75-20.2L51.75-20.2Q51.75-18.85 52.62-17.98 53.5-17.1 54.82-16.57 56.15-16.05 58.5-15.4L58.5-15.4Q61.45-14.6 63.3-13.83 65.15-13.05 66.47-11.5 67.8-9.95 67.84-7.45L67.84-7.45Q67.84-5.2 66.59-3.4 65.34-1.6 63.07-0.58 60.8 0.45 57.84 0.45L57.84 0.45ZM99.24-14.75Q99.24-13.45 99.09-12L99.09-12 77.19-12Q77.44-7.95 79.97-5.68 82.49-3.4 86.09-3.4L86.09-3.4Q89.04-3.4 91.02-4.78 92.99-6.15 93.79-8.45L93.79-8.45 98.69-8.45Q97.59-4.5 94.29-2.02 90.99 0.45 86.09 0.45L86.09 0.45Q82.19 0.45 79.12-1.3 76.04-3.05 74.29-6.28 72.54-9.5 72.54-13.75L72.54-13.75Q72.54-18 74.24-21.2 75.94-24.4 79.02-26.13 82.09-27.85 86.09-27.85L86.09-27.85Q89.99-27.85 92.99-26.15 95.99-24.45 97.62-21.48 99.24-18.5 99.24-14.75L99.24-14.75ZM94.54-15.7Q94.54-18.3 93.39-20.18 92.24-22.05 90.27-23.03 88.29-24 85.89-24L85.89-24Q82.44-24 80.02-21.8 77.59-19.6 77.24-15.7L77.24-15.7 94.54-15.7ZM105.24-37L109.79-37 109.79 0 105.24 0 105.24-37ZM130.24-23.65L123.09-23.65 123.09-7.5Q123.09-5.5 123.94-4.67 124.79-3.85 126.89-3.85L126.89-3.85 130.24-3.85 130.24 0 126.14 0Q122.34 0 120.44-1.75 118.54-3.5 118.54-7.5L118.54-7.5 118.54-23.65 114.99-23.65 114.99-27.4 118.54-27.4 118.54-34.3 123.09-34.3 123.09-27.4 130.24-27.4 130.24-23.65ZM137.19 0.3Q135.89 0.3 134.99-0.6 134.09-1.5 134.09-2.8L134.09-2.8Q134.09-4.1 134.99-5 135.89-5.9 137.19-5.9L137.19-5.9Q138.44-5.9 139.31-5 140.19-4.1 140.19-2.8L140.19-2.8Q140.19-1.5 139.31-0.6 138.44 0.3 137.19 0.3L137.19 0.3ZM144.53-13.75Q144.53-18 146.23-21.18 147.93-24.35 150.96-26.1 153.98-27.85 157.88-27.85L157.88-27.85Q162.93-27.85 166.21-25.4 169.48-22.95 170.53-18.6L170.53-18.6 165.63-18.6Q164.93-21.1 162.91-22.55 160.88-24 157.88-24L157.88-24Q153.98-24 151.58-21.33 149.18-18.65 149.18-13.75L149.18-13.75Q149.18-8.8 151.58-6.1 153.98-3.4 157.88-3.4L157.88-3.4Q160.88-3.4 162.88-4.8 164.88-6.2 165.63-8.8L165.63-8.8 170.53-8.8Q169.43-4.6 166.13-2.08 162.83 0.45 157.88 0.45L157.88 0.45Q153.98 0.45 150.96-1.3 147.93-3.05 146.23-6.25 144.53-9.45 144.53-13.75L144.53-13.75ZM188.53 0.45Q184.68 0.45 181.56-1.3 178.43-3.05 176.66-6.28 174.88-9.5 174.88-13.75L174.88-13.75Q174.88-17.95 176.71-21.18 178.53-24.4 181.68-26.13 184.83-27.85 188.73-27.85L188.73-27.85Q192.63-27.85 195.78-26.13 198.93-24.4 200.76-21.2 202.58-18 202.58-13.75L202.58-13.75Q202.58-9.5 200.71-6.28 198.83-3.05 195.63-1.3 192.43 0.45 188.53 0.45L188.53 0.45ZM188.53-3.55Q190.98-3.55 193.13-4.7 195.28-5.85 196.61-8.15 197.93-10.45 197.93-13.75L197.93-13.75Q197.93-17.05 196.63-19.35 195.33-21.65 193.23-22.78 191.13-23.9 188.68-23.9L188.68-23.9Q186.18-23.9 184.11-22.78 182.03-21.65 180.78-19.35 179.53-17.05 179.53-13.75L179.53-13.75Q179.53-10.4 180.76-8.1 181.98-5.8 184.03-4.67 186.08-3.55 188.53-3.55L188.53-3.55Z" fill="#ff6b2e" data-fill-palette-color="primary"></path></g></svg></g></svg></g><g transform="matrix(1,0,0,1,0,94.34772938105263)"><svg viewBox="0 0 232.209792 22.132059637965735" height="22.132059637965735" width="232.209792"><g transform="matrix(1,0,0,1,0,0)"><svg width="232.209792" viewBox="4.496666666666666 -36.45 385.0168055477013 36.705000000000005" height="22.132059637965735" data-palette-color="#ffffff"><path d="M6.9-0.15L6.9-0.15Q5.85-0.2 5.15-0.95 4.45-1.7 4.5-2.75L4.5-2.75Q4.55-3.55 5.05-4.2L5.05-4.2Q5.05-6.65 5-11.78 4.95-16.9 4.95-19.55L4.95-19.55Q4.95-20.45 4.98-22.88 5-25.3 4.98-26.43 4.95-27.55 4.85-29.38 4.75-31.2 4.55-32.65L4.55-32.65Q4.35-33.7 4.98-34.52 5.6-35.35 6.6-35.5L6.6-35.5Q7.4-35.65 8.1-35.3L8.1-35.3Q8.35-35.4 8.65-35.4L8.65-35.4Q14.25-35.75 17.45-35.45L17.45-35.45Q23.55-34.95 26.6-32.35L26.6-32.35Q28.6-30.65 29.38-28.2 30.15-25.75 29.65-23.25 29.15-20.75 27.6-18.8L27.6-18.8Q28.55-18.35 29.25-17.75L29.25-17.75Q31.3-16.05 32.05-13.73 32.8-11.4 32.27-9.28 31.75-7.15 30.4-5.28 29.05-3.4 27.2-2.3L27.2-2.3Q25.7-1.5 23.85-0.95 22-0.4 20.43-0.15 18.85 0.1 16.68 0.15 14.5 0.2 13.25 0.15 12 0.1 9.8 0 7.6-0.1 6.9-0.15L6.9-0.15ZM10.05-5L10.05-5Q12.9-4.9 15.38-4.83 17.85-4.75 20.38-5.2 22.9-5.65 24.7-6.7L24.7-6.7Q26.95-7.95 27.35-10.25 27.75-12.55 26.05-13.95L26.05-13.95Q24.85-14.95 20.55-15.2L20.55-15.2Q18.95-14.95 17-14.95L17-14.95Q15.5-15 12.55-15.2L12.55-15.2Q11.85-15.25 11.35-15.25L11.35-15.25Q10.95-15.3 10.55-15.45L10.55-15.45 9.95-15.5Q9.95-14.55 10-10.8 10.05-7.05 10.05-5L10.05-5ZM12.9-20.2L12.9-20.2Q13.4-20.2 15.25-20.25L15.25-20.25Q18.35-20.3 20-20.2L20-20.2 20.3-20.2Q21.75-20.45 22.6-21L22.6-21Q24.55-22.15 24.8-24.65 25.05-27.15 23.4-28.55L23.4-28.55Q21.55-30.1 17-30.5L17-30.5Q14.3-30.7 9.8-30.45L9.8-30.45Q10-27.95 9.95-20.55L9.95-20.55 10.1-20.55Q12.05-20.3 12.9-20.2L12.9-20.2ZM55.95 0L55.95 0Q55.05-0.05 54.37-0.7 53.7-1.35 53.6-2.9L53.6-2.9Q51.3-0.9 48.85-0.3L48.85-0.3Q45.35 0.6 42.45-1.45L42.45-1.45Q39.65-3.45 38.05-8.05L38.05-8.05Q37.5-9.65 37.2-11.35L37.2-11.35Q36.9-13.1 36.92-15.08 36.95-17.05 37-18.28 37.05-19.5 37.25-21.63 37.45-23.75 37.5-24.3L37.5-24.3Q37.6-25.3 38.37-25.98 39.15-26.65 40.17-26.58 41.2-26.5 41.87-25.73 42.55-24.95 42.5-23.9L42.5-23.9Q42.45-23.15 42.22-21.05 42-18.95 41.97-17.93 41.95-16.9 41.92-15.23 41.9-13.55 42.12-12.23 42.35-10.9 42.75-9.65L42.75-9.65Q43.85-6.6 45.55-5.5L45.55-5.5Q46.25-5.05 47.85-5.05L47.85-5.05Q50-5.4 51.32-6.3 52.65-7.2 53.8-10.4L53.8-10.4Q53.9-17.05 53.65-23.9L53.65-23.9Q53.6-24.95 54.32-25.7 55.05-26.45 56.07-26.5 57.1-26.55 57.85-25.83 58.6-25.1 58.65-24.1L58.65-24.1Q59.05-12.3 58.6-2.35L58.6-2.35Q58.55-1.35 57.77-0.65 57 0.05 55.95 0L55.95 0ZM65.4-2.4L65.4-2.4Q65.3-6.15 65.42-13.9 65.55-21.65 65.55-24.05L65.55-24.05Q65.55-25.1 66.27-25.83 67-26.55 68.05-26.55 69.09-26.55 69.82-25.83 70.55-25.1 70.55-24.05L70.55-24.05Q70.55-21.65 70.42-13.95 70.3-6.25 70.4-2.5L70.4-2.5Q70.4-1.45 69.7-0.7 69 0.05 67.95 0.05 66.9 0.05 66.15-0.65 65.4-1.35 65.4-2.4L65.4-2.4ZM70.05-35.2L70.05-35.2Q70.9-34.35 70.9-33.1 70.9-31.85 70.05-31 69.2-30.15 67.95-30.15 66.7-30.15 65.84-31 65-31.85 65-33.1 65-34.35 65.84-35.2 66.7-36.05 67.97-36.08 69.25-36.1 70.05-35.2L70.05-35.2ZM81.79-2.4L81.79-2.4Q81.74-1.35 80.99-0.65 80.24 0.05 79.19 0 78.14-0.05 77.44-0.8 76.74-1.55 76.79-2.6L76.79-2.6Q76.99-9.25 76.99-12.7 76.99-16.15 76.89-23 76.79-29.85 76.79-33.3L76.79-33.3Q76.79-34.35 77.52-35.08 78.24-35.8 79.29-35.8 80.34-35.8 81.07-35.08 81.79-34.35 81.79-33.3L81.79-33.3Q81.79-29.85 81.89-23.5 81.99-17.15 81.97-11.98 81.94-6.8 81.79-2.4L81.79-2.4ZM107.49 0L107.49 0Q106.69 0 106.04-0.45 105.39-0.9 105.14-2.15L105.14-2.15Q102.99-0.6 100.64-0.15L100.64-0.15Q97.39 0.45 94.69-0.5 91.99-1.45 90.14-3.65L90.14-3.65Q86.79-7.55 86.84-13.55L86.84-13.55Q86.89-18.95 90.34-22.85L90.34-22.85Q94.49-27.5 101.24-26.3L101.24-26.3Q103.54-25.9 104.74-25.25L104.74-25.25 104.64-33.25Q104.64-34.3 105.37-35.05 106.09-35.8 107.12-35.8 108.14-35.8 108.89-35.08 109.64-34.35 109.64-33.35L109.64-33.35Q109.99-10.55 109.99-2.5L109.99-2.5Q109.99-1.45 109.27-0.73 108.54 0 107.49 0L107.49 0ZM99.74-5.05L99.74-5.05Q100.69-5.25 101.74-5.75 102.79-6.25 103.22-6.58 103.64-6.9 103.87-7.15 104.09-7.4 104.39-7.73 104.69-8.05 104.94-8.75L104.94-8.75Q104.94-15.1 104.84-18.85L104.84-18.85Q104.79-18.85 104.74-18.9L104.74-18.9Q102.64-20.7 102.64-20.75L102.64-20.75Q102.09-21.1 100.34-21.4L100.34-21.4Q96.34-22.1 94.09-19.5L94.09-19.5Q91.84-17.05 91.84-13.55L91.84-13.55Q91.79-9.4 93.94-6.88 96.09-4.35 99.74-5.05L99.74-5.05ZM139.04-2.25L139.04-2.25Q138.84-3.7 138.79-8.75L138.79-8.75Q138.74-11.95 138.69-13.05L138.69-13.05 130.69-26.2Q128.84-29.3 127.29-32.2L127.29-32.2Q126.79-33.1 127.09-34.1 127.39-35.1 128.29-35.6 129.19-36.1 130.19-35.8 131.19-35.5 131.69-34.6L131.69-34.6Q133.94-30.4 141.04-18.75L141.04-18.75Q141.99-20.3 143.89-23 145.79-25.7 146.49-26.85L146.49-26.85Q146.84-27.4 148.79-30.8L148.79-30.8Q150.24-33.35 151.29-34.9L151.29-34.9Q151.84-35.75 152.86-35.95 153.89-36.15 154.74-35.58 155.59-35 155.79-33.98 155.99-32.95 155.39-32.1L155.39-32.1Q154.74-31.1 153.14-28.3L153.14-28.3 150.79-24.25Q149.89-22.85 147.39-19.28 144.89-15.7 143.79-13.4L143.79-13.4Q143.74-13.25 143.69-13.15L143.69-13.15Q143.74-12.05 143.79-8.8L143.79-8.8Q143.84-4.1 144.04-2.75L144.04-2.75Q144.14-1.7 143.46-0.9 142.79-0.1 141.76 0 140.74 0.1 139.94-0.58 139.14-1.25 139.04-2.25L139.04-2.25ZM168.53-0.35L168.53-0.35Q161.93 1.25 157.98-3L157.98-3Q154.83-6.25 154.08-11.35L154.08-11.35Q153.53-15.35 155.03-18.95L155.03-18.95Q156.83-23.55 160.73-25.75L160.73-25.75Q161.53-26.2 162.73-26.4L162.73-26.4Q162.78-26.4 163.43-26.45L163.43-26.45Q163.68-26.5 163.83-26.55L163.83-26.55Q164.58-26.7 165.33-26.4L165.33-26.4Q165.53-26.4 166.28-26.38 167.03-26.35 167.28-26.33 167.53-26.3 168.16-26.23 168.78-26.15 169.18-26.05L169.18-26.05 170.13-25.7Q170.73-25.5 171.28-25.2 171.83-24.9 172.48-24.5L172.48-24.5Q175.73-22.3 176.98-18.32 178.23-14.35 177.63-11.9L177.63-11.9Q177.18-9.2 176.03-6.88 174.88-4.55 172.86-2.75 170.83-0.95 168.53-0.35L168.53-0.35ZM166.98-5.55L166.98-5.55Q169.13-5.85 170.66-7.78 172.18-9.7 172.66-11.85 173.13-14 172.31-16.57 171.48-19.15 169.68-20.3L169.68-20.3Q169.13-20.7 168.78-20.88 168.43-21.05 167.96-21.18 167.48-21.3 167.21-21.3 166.93-21.3 166.03-21.35 165.13-21.4 164.43-21.45L164.43-21.45Q164.28-21.45 164.08-21.5L164.08-21.5Q163.53-21.45 163.48-21.45L163.48-21.45 163.13-21.35Q160.93-20.15 159.76-17.53 158.58-14.9 159.08-12.1L159.08-12.1Q159.63-8.7 161.53-6.95L161.53-6.95Q163.58-5.05 166.98-5.55L166.98-5.55ZM201.78 0L201.78 0Q200.88-0.05 200.21-0.7 199.53-1.35 199.43-2.9L199.43-2.9Q197.13-0.9 194.68-0.3L194.68-0.3Q191.18 0.6 188.28-1.45L188.28-1.45Q185.48-3.45 183.88-8.05L183.88-8.05Q183.33-9.65 183.03-11.35L183.03-11.35Q182.73-13.1 182.76-15.08 182.78-17.05 182.83-18.28 182.88-19.5 183.08-21.63 183.28-23.75 183.33-24.3L183.33-24.3Q183.43-25.3 184.21-25.98 184.98-26.65 186.01-26.58 187.03-26.5 187.71-25.73 188.38-24.95 188.33-23.9L188.33-23.9Q188.28-23.15 188.06-21.05 187.83-18.95 187.81-17.93 187.78-16.9 187.76-15.23 187.73-13.55 187.96-12.23 188.18-10.9 188.58-9.65L188.58-9.65Q189.68-6.6 191.38-5.5L191.38-5.5Q192.08-5.05 193.68-5.05L193.68-5.05Q195.83-5.4 197.16-6.3 198.48-7.2 199.63-10.4L199.63-10.4Q199.73-17.05 199.48-23.9L199.48-23.9Q199.43-24.95 200.16-25.7 200.88-26.45 201.91-26.5 202.93-26.55 203.68-25.83 204.43-25.1 204.48-24.1L204.48-24.1Q204.88-12.3 204.43-2.35L204.43-2.35Q204.38-1.35 203.61-0.65 202.83 0.05 201.78 0L201.78 0ZM213.83 0L213.83 0Q212.83 0 212.08-0.68 211.33-1.35 211.33-2.5L211.33-2.5 211.23-12.7Q211.18-16.15 211.18-21.3L211.18-21.3 211.18-24.25Q211.18-25.4 211.88-26.05 212.58-26.7 213.58-26.7L213.58-26.7Q214.63-26.7 215.4-26.03 216.18-25.35 216.18-24.15L216.18-24.15 216.18-22.65Q216.73-23.85 218.23-24.7L218.23-24.7Q220.28-25.95 222.73-25.95L222.73-25.95Q224.58-25.95 225.58-25.35 226.58-24.75 226.58-23.2L226.58-23.2Q226.58-22.2 225.98-21.53 225.38-20.85 224.23-20.85L224.23-20.85Q220.03-20.85 218.43-19.7L218.43-19.7Q217.53-19.1 216.85-18.25 216.18-17.4 216.18-16.6L216.18-16.6 216.28-10.35 216.33-2.5Q216.33-1.35 215.58-0.68 214.83 0 213.83 0L213.83 0ZM247.12 0.1L247.12 0.1Q246.37 0.15 245.72-0.25L245.72-0.25Q244.92-0.5 244.45-1.18 243.97-1.85 243.97-2.7L243.97-2.7Q243.97-4.3 244.22-18.35L244.22-18.35Q244.27-20.65 244.07-25.7L244.07-25.7Q243.87-30.65 244.02-33.4L244.02-33.4Q244.07-34.45 244.85-35.15 245.62-35.85 246.62-35.8L246.62-35.8 246.82-35.8Q247.27-36.05 247.77-36.1L247.77-36.1Q250.07-36.3 251.42-36.38 252.77-36.45 255.22-36.45 257.67-36.45 259.42-36.13 261.17-35.8 263.3-35.05 265.42-34.3 267.07-33.1L267.07-33.1Q270.57-30.55 272.2-26.58 273.82-22.6 273.67-18.2L273.67-18.2Q273.52-13.95 271.77-10L271.77-10Q269.97-6.1 266.82-3.6L266.82-3.6Q263.07-0.6 256.67-0.1L256.67-0.1Q254.77 0.05 251.67 0.05L251.67 0.05Q248.32 0.05 247.12 0.1L247.12 0.1ZM249.02-4.95L251.67-4.95Q254.62-4.95 256.27-5.1L256.27-5.1Q260.82-5.45 263.42-7.5L263.42-7.5Q265.62-9.25 266.95-12.18 268.27-15.1 268.37-18.4L268.37-18.4Q268.52-21.7 267.37-24.5L267.37-24.5Q266.17-27.35 263.87-29L263.87-29Q262.02-30.35 259.47-30.95L259.47-30.95Q256.87-31.55 254.42-31.48 251.97-31.4 248.97-31.15L248.97-31.15Q248.92-29.7 249.07-25.9L249.07-25.9Q249.27-20.45 249.22-18.25L249.22-18.25Q249.22-16.75 249.17-14.08 249.12-11.4 249.07-9.15 249.02-6.9 249.02-4.95L249.02-4.95ZM281.82 0L281.82 0Q280.82 0 280.07-0.68 279.32-1.35 279.32-2.5L279.32-2.5 279.22-12.7Q279.17-16.15 279.17-21.3L279.17-21.3 279.17-24.25Q279.17-25.4 279.87-26.05 280.57-26.7 281.57-26.7L281.57-26.7Q282.62-26.7 283.4-26.03 284.17-25.35 284.17-24.15L284.17-24.15 284.17-22.65Q284.72-23.85 286.22-24.7L286.22-24.7Q288.27-25.95 290.72-25.95L290.72-25.95Q292.57-25.95 293.57-25.35 294.57-24.75 294.57-23.2L294.57-23.2Q294.57-22.2 293.97-21.53 293.37-20.85 292.22-20.85L292.22-20.85Q288.02-20.85 286.42-19.7L286.42-19.7Q285.52-19.1 284.85-18.25 284.17-17.4 284.17-16.6L284.17-16.6 284.27-10.35 284.32-2.5Q284.32-1.35 283.57-0.68 282.82 0 281.82 0L281.82 0ZM308.57 0.25L308.57 0.25Q304.87 0 302.12-1.25 299.37-2.5 297.92-4.4 296.47-6.3 295.82-7.9 295.17-9.5 295.02-11.08 294.87-12.65 295.17-15.15L295.17-15.15Q295.52-17.25 296.64-19.3 297.77-21.35 299.64-22.98 301.52-24.6 304.17-25.48 306.82-26.35 309.82-26L309.82-26Q312.72-25.65 314.77-24.43 316.82-23.2 318.27-21.3L318.27-21.3Q319.52-19.7 319.79-18.9 320.07-18.1 320.29-17.4 320.52-16.7 320.67-16.2 320.82-15.7 320.94-15.18 321.07-14.65 321.12-13.95L321.12-13.95Q321.17-13 320.77-12.2 320.37-11.4 319.57-10.95L319.57-10.95Q318.92-10.7 318.17-10.7L318.17-10.7 309.62-10.55Q300.62-10.5 300.62-10.35L300.62-10.35 300.47-10.35Q301.12-7.8 303.19-6.35 305.27-4.9 308.87-4.65L308.87-4.65Q310.82-4.55 312.12-4.85L312.12-4.85Q313.57-5.25 314.22-5.58 314.87-5.9 315.82-6.45L315.82-6.45Q316.77-6.8 317.72-6.35 318.67-5.9 319.02-4.95 319.37-4 318.94-3.1 318.52-2.2 317.62-1.7L317.62-1.7Q316.82-1.25 315.97-0.93 315.12-0.6 313.47-0.15 311.82 0.3 308.57 0.25L308.57 0.25ZM300.57-15.25L300.57-15.25Q303.47-15.4 315.62-15.55L315.62-15.55Q315.17-17.05 314.17-18.4L314.17-18.4Q312.17-20.7 309.22-21.05L309.22-21.05Q306.12-21.45 303.77-19.73 301.42-18 300.57-15.25L300.57-15.25ZM339.77-0.8L339.77-0.8Q337.97-0.1 335.69 0 333.42 0.1 331.47-0.53 329.52-1.15 328.02-2.45L328.02-2.45Q325.42-4.6 324.67-7.8 323.92-11 324.62-13.55 325.32-16.1 326.74-18.53 328.17-20.95 329.84-22.63 331.52-24.3 333.72-25.45 335.92-26.6 338.32-26.58 340.72-26.55 343.37-25.25L343.37-25.25Q343.77-25.05 344.24-24.65 344.72-24.25 345.07-23.95L345.07-23.95 345.72-23.3Q346.02-23 346.02-22.95L346.02-22.95Q346.82-22.25 346.87-21.15L346.87-21.15Q347.52-18.15 347.72-14.85 347.92-11.55 347.84-8.65 347.77-5.75 347.92-2.5L347.92-2.5Q347.97-1.5 347.27-0.75 346.57 0 345.52 0.05 344.47 0.1 343.72-0.6 342.97-1.3 342.92-2.3L342.92-2.3 342.92-3.05Q341.42-1.5 339.77-0.8L339.77-0.8ZM337.52-5.3L337.52-5.3Q338.27-5.5 338.72-5.7 339.17-5.9 339.84-6.3 340.52-6.7 341.27-7.3 342.02-7.9 342.62-8.8L342.62-8.8Q342.72-8.9 342.87-9L342.87-9Q342.87-15.75 342.02-19.85L342.02-19.85Q341.87-20.05 341.69-20.23 341.52-20.4 341.44-20.5 341.37-20.6 341.24-20.68 341.12-20.75 340.97-20.85L340.97-20.85Q338.57-22.15 335.92-20.93 333.27-19.7 331.27-16.35L331.27-16.35Q329.27-12.95 329.29-10.43 329.32-7.9 331.22-6.25L331.22-6.25Q332.37-5.3 334.07-5.05 335.77-4.8 337.52-5.3L337.52-5.3ZM384.51-2.2L384.51-2.2Q384.46-3.1 384.39-3.88 384.31-4.65 384.29-5.03 384.26-5.4 384.24-5.68 384.21-5.95 384.21-6.3L384.21-6.3 384.21-9.15Q384.21-9.95 384.29-11.98 384.36-14 384.34-15.4 384.31-16.8 384.06-18.05L384.06-18.05Q383.76-19.8 383.01-20.58 382.26-21.35 380.71-21.35L380.71-21.35Q377.26-21.3 373.81-17.15L373.81-17.15Q373.96-15.65 373.96-11.35L373.96-11.35Q373.96-8.2 374.11-2.55L374.11-2.55Q374.16-1.55 373.44-0.8 372.71-0.05 371.69 0 370.66 0.05 369.91-0.68 369.16-1.4 369.11-2.45L369.11-2.45Q368.96-8.1 368.96-11.35L368.96-11.35 368.96-13.85Q368.96-14.1 368.94-14.9 368.91-15.7 368.89-16.07 368.86-16.45 368.79-17.07 368.71-17.7 368.64-18.18 368.56-18.65 368.41-19.1L368.41-19.1Q368.01-20.5 367.31-21.05L367.31-21.05Q366.56-21.65 365.06-21.5L365.06-21.5Q363.41-21.35 362.21-20.6L362.21-20.6Q361.06-19.85 359.86-18.2L359.86-18.2Q359.61-17.9 359.31-17.65L359.31-17.65Q359.51-7.65 359.31-2.4L359.31-2.4Q359.26-1.35 358.51-0.65 357.76 0.05 356.71 0 355.66-0.05 354.96-0.8 354.26-1.55 354.31-2.6L354.31-2.6Q354.41-8.15 354.41-9.73 354.41-11.3 354.29-16.98 354.16-22.65 354.16-24.25L354.16-24.25Q354.16-25 354.89-25.75 355.61-26.5 356.61-26.5 357.61-26.5 358.41-25.88 359.21-25.25 359.16-23.55L359.16-23.55Q361.41-26.2 364.66-26.5L364.66-26.5Q368.11-26.8 370.41-24.95L370.41-24.95Q371.61-24 372.56-22.3L372.56-22.3Q375.66-26.2 380.71-26.5L380.71-26.5Q384.41-26.55 386.66-24.2L386.66-24.2Q388.41-22.15 389.01-18.95L389.01-18.95Q389.26-17.45 389.31-15.68 389.36-13.9 389.29-11.68 389.21-9.45 389.21-9.15L389.21-9.15 389.21-6.4Q389.21-6.15 389.24-5.9 389.26-5.65 389.29-5.33 389.31-5 389.36-4.25 389.41-3.5 389.51-2.6L389.51-2.6Q389.56-1.55 388.89-0.78 388.21 0 387.19 0.08 386.16 0.15 385.39-0.53 384.61-1.2 384.51-2.2L384.51-2.2Z" opacity="1" transform="matrix(1,0,0,1,0,0)" fill="#ffffff" class="slogan-text-1" data-fill-palette-color="secondary" id="text-1"></path></svg></g></svg></g></svg></g></svg></g><g><svg viewBox="0 0 160.9750684242834 160.9750684242834" height="160.9750684242834" width="160.9750684242834"><g><svg xmlns="http://www.w3.org/2000/svg" xmlns:xlink="http://www.w3.org/1999/xlink" version="1.1" x="0" y="0" viewBox="14.017000000000001 14.018 71.965 71.965" enable-background="new 0 0 100 100" xml:space="preserve" height="160.9750684242834" width="160.9750684242834" class="icon-icon-0" data-fill-palette-color="accent" id="icon-0"><g display="none" fill="#f1b73c" data-fill-palette-color="accent"><path display="inline" d="M75.186 68.916c0 0-6.082 0.422-12.528 0.781-2.398-2.686-2.07-9.439-1.767-12.604 2.509-2.766 4.729-6.279 6.044-10.264 0.136 0.223 0.29 0.414 0.494 0.523 2.248 1.238 1.689-3.824 1.797-5.959 0.111-2.137 1.688-4.947 0-4.947-0.456 0-0.79 0.068-1.047 0.164-0.311-12.205-3.23-21.717-17.954-21.717-15.678 0-17.782 9.639-17.973 21.963-0.247-0.213-0.685-0.41-1.479-0.41-1.688 0-0.114 2.811 0 4.947 0.112 2.135-0.448 7.197 1.799 5.959 0.33-0.184 0.557-0.543 0.711-1.004 1.202 4.068 3.329 7.666 5.796 10.512 0.312 3.045 0.721 10.061-1.726 12.82-6.478-0.354-12.541-0.766-12.541-0.766-5.961 0-10.795 4.832-10.795 10.793v5.396h71.965v-5.396C85.982 73.748 81.146 68.916 75.186 68.916z" fill="#f1b73c" data-fill-palette-color="accent"></path></g><g display="none" fill="#f1b73c" data-fill-palette-color="accent"><polygon display="inline" points="52.996,40.028 52.996,24.036 47.006,24.036 47.006,40.028 14.064,40.028 26.045,75.964    73.957,75.964 85.936,40.028  " fill="#f1b73c" data-fill-palette-color="accent"></polygon></g><g display="none" fill="#f1b73c" data-fill-palette-color="accent"><path display="inline" d="M20.015 14.018v71.965h59.971V14.018H20.015zM35.008 75.988h-5.995v-6h5.995V75.988zM35.008 63.994h-5.995v-5.998h5.995V63.994zM35.008 51.998h-5.995v-5.996h5.995V51.998zM47.001 75.988h-5.994v-6h5.994V75.988zM47.001 63.994h-5.994v-5.998h5.994V63.994zM47.001 51.998h-5.994v-5.996h5.994V51.998zM58.997 75.988h-5.995v-6h5.995V75.988zM58.997 63.994h-5.995v-5.998h5.995V63.994zM58.997 51.998h-5.995v-5.996h5.995V51.998zM70.991 75.988h-5.999v-6h5.999V75.988zM70.991 63.994h-5.999v-5.998h5.999V63.994zM70.991 51.998h-5.999v-5.996h5.999V51.998zM73.99 36.008H26.016V24.014H73.99V36.008z" fill="#f1b73c" data-fill-palette-color="accent"></path></g><g fill="#f1b73c" data-fill-palette-color="accent"><polygon points="50,17.02 14.018,47.074 20.1,47.074 20.1,82.984 44.002,82.984 44.002,64.994 55.996,64.994 55.996,82.984    80.07,82.984 80.07,47.074 85.982,47.074  " fill="#f1b73c" data-fill-palette-color="accent"></polygon><polygon points="77.986,17.016 65.992,17.016 65.992,25.037 77.986,35.008  " fill="#f1b73c" data-fill-palette-color="accent"></polygon></g></svg></g></svg></g></svg></g></svg></g><defs></defs></svg><rect width="395.52" height="110.82204665276524" fill="none" stroke="none" visibility="hidden"></rect></g></svg></g></svg>